<svg width="44" height="44" viewBox="0 0 44 44" fill="none" xmlns="http://www.w3.org/2000/svg">
<path d="M31.1666 40.3333H12.8333V42.1667H31.1666V40.3333Z" fill="black"/>
<path d="M42.1666 33H40.3333V40.3333H42.1666V33Z" fill="black"/>
<path d="M36.6666 36.6667H34.8333V18.3333H36.6666V29.3333H38.5V31.1667H36.6666V36.6667Z" fill="black"/>
<path d="M40.3333 40.3333H33V42.1667H40.3333V40.3333Z" fill="black"/>
<path d="M33 14.6667H31.1667V16.5H33V14.6667Z" fill="black"/>
<path d="M34.8333 16.5H33V18.3333H34.8333V16.5Z" fill="black"/>
<path d="M40.3333 31.1667H38.5V33H40.3333V31.1667Z" fill="black"/>
<path d="M34.8333 36.6667H33V38.5H34.8333V36.6667Z" fill="black"/>
<path d="M33 38.5H31.1667V40.3333H33V38.5Z" fill="black"/>
<path d="M11 36.6667H9.16669V38.5H11V36.6667Z" fill="black"/>
<path d="M12.8333 38.5H11V40.3333H12.8333V38.5Z" fill="black"/>
<path d="M7.33333 31.1667H5.5V29.3333H7.33333V18.3333H9.16667V36.6667H7.33333V31.1667Z" fill="black"/>
<path d="M3.66665 33H1.83331V40.3333H3.66665V33Z" fill="black"/>
<path d="M11 40.3333H3.66669V42.1667H11V40.3333Z" fill="black"/>
<path d="M5.50002 31.1667H3.66669V33H5.50002V31.1667Z" fill="black"/>
<path d="M11 16.5H9.16669V18.3333H11V16.5Z" fill="black"/>
<path d="M12.8333 14.6667H11V16.5H12.8333V14.6667Z" fill="black"/>
<path d="M14.6666 12.8333H12.8333V14.6667H14.6666V12.8333Z" fill="black"/>
<path d="M31.1666 12.8333H29.3333V14.6667H31.1666V12.8333Z" fill="black"/>
<path d="M29.3333 9.16667H27.5V12.8333H29.3333V9.16667Z" fill="black"/>
<path d="M16.5 9.16667H14.6667V12.8333H16.5V9.16667Z" fill="black"/>
<path d="M16.5 5.5H14.6667V7.33333H16.5V5.5Z" fill="black"/>
<path d="M18.3333 7.33333H16.5V9.16666H18.3333V7.33333Z" fill="black"/>
<path d="M27.5 7.33333H25.6667V9.16666H27.5V7.33333Z" fill="black"/>
<path d="M29.3333 5.5H27.5V7.33333H29.3333V5.5Z" fill="black"/>
<path d="M31.1666 3.66667H29.3333V5.50001H31.1666V3.66667Z" fill="black"/>
<path d="M29.3334 1.83333H14.6667V3.66666H29.3334V1.83333Z" fill="black"/>
<path d="M14.6666 3.66667H12.8333V5.50001H14.6666V3.66667Z" fill="black"/>
<path d="M27.5 9.16666V12.8333H16.5V9.16666H18.3333V7.33333H25.6667V9.16666H27.5Z" fill="#B57018"/>
<path d="M29.3333 23.8333V20.1667H25.6666V18.3333H18.3333V20.1667H14.6666V23.8333H12.8333V29.3333H14.6666V33H18.3333V34.8333H25.6666V33H29.3333V29.3333H31.1666V23.8333H29.3333ZM22 31.1667V33H20.1666V31.1667H18.3333V29.3333H23.8333V27.5H18.3333V22H22V20.1667H23.8333V22H25.6666V23.8333H20.1666V25.6667H25.6666V31.1667H22Z" fill="#B57018"/>
<path d="M23.8334 34.8333H20.1667V40.3333H23.8334V34.8333Z" fill="white"/>
<path d="M20.1666 3.66667H18.3333V7.33334H20.1666V3.66667Z" fill="white"/>
<path d="M25.6666 3.66667H23.8333V7.33334H25.6666V3.66667Z" fill="white"/>
<path d="M25.6666 12.8333V14.6667H23.8333V18.3333H20.1666V14.6667H18.3333V12.8333H25.6666Z" fill="white"/>
<path d="M29.3334 3.66667V5.50001H27.5V7.33334H25.6667V3.66667H29.3334Z" fill="#FFD100"/>
<path d="M23.8334 3.66667H20.1667V7.33334H23.8334V3.66667Z" fill="#FFD100"/>
<path d="M18.3334 3.66667V7.33334H16.5V5.50001H14.6667V3.66667H18.3334Z" fill="#FFD100"/>
<path d="M20.1666 23.8333V25.6667H25.6666V31.1667H22V33H20.1666V31.1667H18.3333V29.3333H23.8333V27.5H18.3333V22H22V20.1667H23.8333V22H25.6666V23.8333H20.1666Z" fill="#FFD100"/>
<path d="M12.8334 23.8333V29.3333H14.6667V33H18.3334V34.8333H20.1667V40.3333H12.8334V38.5H11V36.6667H9.16669V18.3333H11V16.5H12.8334V14.6667H14.6667V12.8333H18.3334V14.6667H20.1667V18.3333H18.3334V20.1667H14.6667V23.8333H12.8334Z" fill="#FFD100"/>
<path d="M11 38.5V40.3333H3.66669V33H5.50002V31.1667H7.33335V36.6667H9.16669V38.5H11Z" fill="#FFD100"/>
<path d="M40.3333 33V40.3333H33V38.5H34.8333V36.6667H36.6667V31.1667H38.5V33H40.3333Z" fill="#FFD100"/>
<path d="M34.8333 18.3333V36.6667H33V38.5H31.1666V40.3333H23.8333V34.8333H25.6666V33H29.3333V29.3333H31.1666V23.8333H29.3333V20.1667H25.6666V18.3333H23.8333V14.6667H25.6666V12.8333H29.3333V14.6667H31.1666V16.5H33V18.3333H34.8333Z" fill="#FFD100"/>
</svg>
