<svg width="44" height="44" viewBox="0 0 44 44" fill="none" xmlns="http://www.w3.org/2000/svg">
<path d="M22 14.6667H14.6667V16.5H22V14.6667Z" fill="#835331"/>
<path d="M25.6667 12.8333H22V14.6667H25.6667V12.8333Z" fill="#835331"/>
<path d="M14.6666 11H12.8333V14.6667H14.6666V11Z" fill="#5F2F0C"/>
<path d="M42.1666 11H40.3333V25.6667H42.1666V11Z" fill="black"/>
<path d="M40.3333 25.6667H38.5V27.5H40.3333V25.6667Z" fill="black"/>
<path d="M40.3333 23.8333H38.5V25.6667H40.3333V23.8333Z" fill="#835331"/>
<path d="M40.3333 9.16667H38.5V11H40.3333V9.16667Z" fill="black"/>
<path d="M38.5 27.5H36.6667V29.3333H38.5V27.5Z" fill="black"/>
<path d="M38.5 22H36.6667V23.8333H38.5V22Z" fill="#835331"/>
<path d="M38.5 7.33333H36.6667V9.16666H38.5V7.33333Z" fill="black"/>
<path d="M36.6666 29.3333H34.8333V31.1667H36.6666V29.3333Z" fill="black"/>
<path d="M36.6666 27.5H34.8333V29.3333H36.6666V27.5Z" fill="#835331"/>
<path d="M36.6666 20.1667H34.8333V22H36.6666V20.1667Z" fill="#835331"/>
<path d="M36.6666 5.5H34.8333V7.33333H36.6666V5.5Z" fill="black"/>
<path d="M34.8333 31.1667H33V33H34.8333V31.1667Z" fill="black"/>
<path d="M34.8333 25.6667H33V27.5H34.8333V25.6667Z" fill="#835331"/>
<path d="M34.8333 18.3333H33V20.1667H34.8333V18.3333Z" fill="#835331"/>
<path d="M34.8334 3.66667H9.16669V5.50001H34.8334V3.66667Z" fill="black"/>
<path d="M33 33H31.1667V34.8333H33V33Z" fill="black"/>
<path d="M33 31.1667H31.1667V33H33V31.1667Z" fill="#835331"/>
<path d="M33 23.8333H31.1667V25.6667H33V23.8333Z" fill="#835331"/>
<path d="M36.6666 11V12.8333H34.8333V16.5H33V18.3333H31.1666V16.5H29.3333V14.6667H31.1666V12.8333H33V11H36.6666Z" fill="#835331"/>
<path d="M33 11H31.1667V12.8333H33V11Z" fill="#5F2F0C"/>
<path d="M31.1666 34.8333H29.3333V36.6667H31.1666V34.8333Z" fill="black"/>
<path d="M31.1666 29.3333H29.3333V31.1667H31.1666V29.3333Z" fill="#835331"/>
<path d="M31.1666 22H29.3333V23.8333H31.1666V22Z" fill="#835331"/>
<path d="M29.3333 36.6667H27.5V38.5H29.3333V36.6667Z" fill="black"/>
<path d="M29.3333 34.8333H27.5V36.6667H29.3333V34.8333Z" fill="#835331"/>
<path d="M29.3333 27.5H27.5V29.3333H29.3333V27.5Z" fill="#835331"/>
<path d="M31.1667 12.8333H27.5V14.6667H31.1667V12.8333Z" fill="#5F2F0C"/>
<path d="M27.5 33H25.6667V34.8333H27.5V33Z" fill="#835331"/>
<path d="M27.5 25.6667H25.6667V27.5H27.5V25.6667Z" fill="#835331"/>
<path d="M27.5 38.5H23.8333V40.3333H27.5V38.5Z" fill="black"/>
<path d="M27.5 34.8333V38.5H23.8333V36.6667H22V34.8333H23.8333V33H25.6667V34.8333H27.5Z" fill="#FECF8F"/>
<path d="M25.6666 31.1667H23.8333V33H25.6666V31.1667Z" fill="#835331"/>
<path d="M23.8333 33H22V34.8333H23.8333V33Z" fill="#835331"/>
<path d="M27.5 11H22V12.8333H27.5V11Z" fill="#5F2F0C"/>
<path d="M23.8334 36.6667H20.1667V38.5H23.8334V36.6667Z" fill="black"/>
<path d="M22 34.8333H20.1667V36.6667H22V34.8333Z" fill="#835331"/>
<path d="M40.3334 11V23.8333H38.5V22H36.6667V20.1667H34.8334V18.3333H33V16.5H34.8334V12.8333H36.6667V11H31.1667V12.8333H27.5V11H22V14.6667H14.6667V11H16.5V9.16667H18.3334V7.33333H22V5.5H34.8334V7.33333H36.6667V9.16667H38.5V11H40.3334Z" fill="#BC703C"/>
<path d="M20.1666 36.6667H18.3333V38.5H20.1666V36.6667Z" fill="#835331"/>
<path d="M20.1666 29.3333H18.3333V31.1667H20.1666V29.3333Z" fill="#5F2F0C"/>
<path d="M22 5.5H18.3333V7.33333H22V5.5Z" fill="#5F2F0C"/>
<path d="M20.1667 38.5H16.5V40.3333H20.1667V38.5Z" fill="black"/>
<path d="M18.3333 31.1667H16.5V33H18.3333V31.1667Z" fill="#5F2F0C"/>
<path d="M18.3333 7.33333H16.5V9.16666H18.3333V7.33333Z" fill="#5F2F0C"/>
<path d="M16.5 36.6667H14.6667V38.5H16.5V36.6667Z" fill="black"/>
<path d="M23.8334 29.3333V33H22V34.8333H20.1667V36.6667H18.3334V38.5H16.5V36.6667H14.6667V34.8333H16.5V33H18.3334V31.1667H20.1667V29.3333H23.8334Z" fill="#BC703C"/>
<path d="M16.5 33H14.6667V34.8333H16.5V33Z" fill="#5F2F0C"/>
<path d="M16.5 25.6667H14.6667V27.5H16.5V25.6667Z" fill="#5F2F0C"/>
<path d="M16.5 9.16667H14.6667V11H16.5V9.16667Z" fill="#5F2F0C"/>
<path d="M14.6666 34.8333H12.8333V36.6667H14.6666V34.8333Z" fill="black"/>
<path d="M20.1667 25.6667V29.3333H18.3333V31.1667H16.5V33H14.6667V34.8333H12.8333V33H11V31.1667H12.8333V29.3333H14.6667V27.5H16.5V25.6667H20.1667Z" fill="#BC703C"/>
<path d="M14.6666 27.5H12.8333V29.3333H14.6666V27.5Z" fill="#5F2F0C"/>
<path d="M12.8333 33H11V34.8333H12.8333V33Z" fill="black"/>
<path d="M12.8333 29.3333H11V31.1667H12.8333V29.3333Z" fill="#5F2F0C"/>
<path d="M12.8333 22H11V23.8333H12.8333V22Z" fill="#5F2F0C"/>
<path d="M11 31.1667H9.16669V33H11V31.1667Z" fill="black"/>
<path d="M11 23.8333H9.16669V25.6667H11V23.8333Z" fill="#5F2F0C"/>
<path d="M9.16665 29.3333H7.33331V31.1667H9.16665V29.3333Z" fill="black"/>
<path d="M16.5 22V25.6667H14.6666V27.5H12.8333V29.3333H11V31.1667H9.16665V29.3333H7.33331V27.5H9.16665V25.6667H11V23.8333H12.8333V22H16.5Z" fill="#BC703C"/>
<path d="M9.16665 25.6667H7.33331V27.5H9.16665V25.6667Z" fill="#5F2F0C"/>
<path d="M9.16665 5.5H7.33331V7.33333H9.16665V5.5Z" fill="black"/>
<path d="M7.33333 27.5H5.5V29.3333H7.33333V27.5Z" fill="black"/>
<path d="M12.8334 18.3333V22H11V23.8333H9.16669V25.6667H7.33335V27.5H5.50002V25.6667H3.66669V23.8333H5.50002V22H7.33335V20.1667H9.16669V18.3333H12.8334Z" fill="#BC703C"/>
<path d="M7.33333 7.33333H5.5V9.16666H7.33333V7.33333Z" fill="black"/>
<path d="M5.50002 25.6667H3.66669V27.5H5.50002V25.6667Z" fill="black"/>
<path d="M38.5 23.8333V27.5H34.8334V25.6667H33V23.8333H31.1667V22H29.3334V23.8333H31.1667V25.6667H33V27.5H34.8334V31.1667H31.1667V29.3333H29.3334V27.5H27.5V25.6667H25.6667V27.5H27.5V29.3333H29.3334V31.1667H31.1667V34.8333H27.5V33H25.6667V31.1667H23.8334V29.3333H20.1667V25.6667H16.5V22H12.8334V18.3333H9.16669V20.1667H7.33335V22H5.50002V23.8333H3.66669V11H5.50002V9.16667H7.33335V7.33333H9.16669V5.5H18.3334V7.33333H16.5V9.16667H14.6667V11H12.8334V14.6667H14.6667V16.5H22V14.6667H25.6667V12.8333H27.5V14.6667H29.3334V16.5H31.1667V18.3333H33V20.1667H34.8334V22H36.6667V23.8333H38.5Z" fill="#FECF8F"/>
<path d="M5.50002 9.16667H3.66669V11H5.50002V9.16667Z" fill="black"/>
<path d="M3.66665 11H1.83331V25.6667H3.66665V11Z" fill="black"/>
</svg>
