<svg width="44" height="44" viewBox="0 0 44 44" fill="none" xmlns="http://www.w3.org/2000/svg">
<path d="M42.1667 16.5H40.3333V23.8333H42.1667V16.5Z" fill="black"/>
<path d="M40.3333 23.8333H38.5V25.6667H40.3333V23.8333Z" fill="black"/>
<path d="M40.3333 16.5H38.5V23.8333H40.3333V16.5Z" fill="#EF9520"/>
<path d="M40.3333 14.6667H38.5V16.5H40.3333V14.6667Z" fill="black"/>
<path d="M38.5 25.6667H36.6667V36.6667H38.5V25.6667Z" fill="black"/>
<path d="M40.3333 36.6667H38.5V40.3333H40.3333V36.6667Z" fill="black"/>
<path d="M38.5 40.3333H5.5V42.1667H38.5V40.3333Z" fill="black"/>
<path d="M5.49999 36.6667H3.66666V40.3333H5.49999V36.6667Z" fill="black"/>
<path d="M7.33333 25.6667H5.5V36.6667H7.33333V25.6667Z" fill="black"/>
<path d="M12.8333 7.33333H11V9.16666H12.8333V7.33333Z" fill="black"/>
<path d="M5.49999 14.6667H3.66666V16.5H5.49999V14.6667Z" fill="black"/>
<path d="M14.6667 5.5H12.8333V7.33333H14.6667V5.5Z" fill="black"/>
<path d="M18.3333 3.66667H14.6667V5.50001H18.3333V3.66667Z" fill="black"/>
<path d="M3.66668 16.5H1.83334V23.8333H3.66668V16.5Z" fill="black"/>
<path d="M11 9.16667H7.33334V11H11V9.16667Z" fill="black"/>
<path d="M7.33333 11H5.5V14.6667H7.33333V11Z" fill="black"/>
<path d="M25.6667 1.83333H18.3333V3.66666H25.6667V1.83333Z" fill="black"/>
<path d="M5.49999 23.8333H3.66666V25.6667H5.49999V23.8333Z" fill="black"/>
<path d="M29.3333 3.66667H25.6667V5.50001H29.3333V3.66667Z" fill="black"/>
<path d="M38.5 23.8333H36.6667V25.6667H38.5V23.8333Z" fill="#EF9520"/>
<path d="M38.5 16.5H36.6667V23.8333H38.5V16.5Z" fill="#FFD100"/>
<path d="M38.5 14.6667H36.6667V16.5H38.5V14.6667Z" fill="#EF9520"/>
<path d="M38.5 11H36.6667V14.6667H38.5V11Z" fill="black"/>
<path d="M38.5 36.6667V40.3333H23.8333V38.5H25.6667V36.6667H34.8333V25.6667H36.6667V36.6667H38.5Z" fill="#2B6DA3"/>
<path d="M36.6667 9.16667H33V11H36.6667V9.16667Z" fill="black"/>
<path d="M33 7.33333H31.1667V9.16666H33V7.33333Z" fill="black"/>
<path d="M31.1667 7.33333H29.3333V9.16666H31.1667V7.33333Z" fill="#EF9520"/>
<path d="M31.1667 5.5H29.3333V7.33333H31.1667V5.5Z" fill="black"/>
<path d="M29.3333 7.33333V9.16667H14.6667V7.33333H18.3333V5.5H25.6667V7.33333H29.3333Z" fill="#FFD100"/>
<path d="M29.3333 5.5H25.6667V7.33333H29.3333V5.5Z" fill="#EF9520"/>
<path d="M25.6667 18.3333H23.8333V22H25.6667V18.3333Z" fill="white"/>
<path d="M25.6667 3.66667H18.3333V5.50001H25.6667V3.66667Z" fill="#EF9520"/>
<path d="M20.1667 38.5V40.3333H5.5V36.6667H7.33333V25.6667H9.16667V36.6667H18.3333V38.5H20.1667Z" fill="#2B6DA3"/>
<path d="M18.3333 16.5H12.8333V18.3333H18.3333V16.5Z" fill="white"/>
<path d="M18.3333 5.5H14.6667V7.33333H18.3333V5.5Z" fill="#EF9520"/>
<path d="M14.6667 7.33333H12.8333V9.16666H14.6667V7.33333Z" fill="#EF9520"/>
<path d="M34.8333 14.6667V12.8333H9.16668V14.6667H7.33334V25.6667H9.16668V36.6667H18.3333V38.5H20.1667V40.3333H23.8333V38.5H25.6667V36.6667H34.8333V25.6667H36.6667V14.6667H34.8333ZM11 18.3333H12.8333V16.5H18.3333V18.3333H20.1667V22H18.3333V23.8333H12.8333V22H11V18.3333ZM33 33H11V29.3333H33V33ZM33 22H31.1667V23.8333H25.6667V22H23.8333V18.3333H25.6667V16.5H31.1667V18.3333H33V22Z" fill="#7DC2F9"/>
<path d="M31.1667 22H25.6667V23.8333H31.1667V22Z" fill="white"/>
<path d="M33 18.3333H31.1667V22H33V18.3333Z" fill="white"/>
<path d="M31.1667 16.5H25.6667V18.3333H31.1667V16.5Z" fill="white"/>
<path d="M12.8333 18.3333H11V22H12.8333V18.3333Z" fill="white"/>
<path d="M20.1667 18.3333H18.3333V22H20.1667V18.3333Z" fill="white"/>
<path d="M18.3333 22H12.8333V23.8333H18.3333V22Z" fill="white"/>
<path d="M14.6667 29.3333H12.8333V33H14.6667V29.3333Z" fill="white"/>
<path d="M20.1667 29.3333H18.3333V33H20.1667V29.3333Z" fill="white"/>
<path d="M31.1667 29.3333H29.3333V33H31.1667V29.3333Z" fill="white"/>
<path d="M25.6667 29.3333H23.8333V33H25.6667V29.3333Z" fill="white"/>
<path d="M18.3333 18.3333H12.8333V22H18.3333V18.3333Z" fill="#D22B45"/>
<path d="M31.1667 18.3333H25.6667V22H31.1667V18.3333Z" fill="#D22B45"/>
<path d="M33 29.3333H31.1667V33H33V29.3333Z" fill="#D0EDF4"/>
<path d="M29.3333 29.3333H25.6667V33H29.3333V29.3333Z" fill="#D0EDF4"/>
<path d="M12.8333 29.3333H11V33H12.8333V29.3333Z" fill="#D0EDF4"/>
<path d="M18.3333 29.3333H14.6667V33H18.3333V29.3333Z" fill="#D0EDF4"/>
<path d="M23.8333 29.3333H20.1667V33H23.8333V29.3333Z" fill="#D0EDF4"/>
<path d="M36.6667 11V14.6667H34.8333V12.8333H9.16668V14.6667H7.33334V11H11V9.16667H33V11H36.6667Z" fill="#2B6DA3"/>
<path d="M7.33333 23.8333H5.5V25.6667H7.33333V23.8333Z" fill="#EF9520"/>
<path d="M7.33333 16.5H5.5V23.8333H7.33333V16.5Z" fill="#FFD100"/>
<path d="M7.33333 14.6667H5.5V16.5H7.33333V14.6667Z" fill="#EF9520"/>
<path d="M5.49999 16.5H3.66666V23.8333H5.49999V16.5Z" fill="#EF9520"/>
</svg>
